<?xml version="1.0" encoding="UTF-8"?>
<svg width="30px" height="27px" viewBox="0 0 30 27" version="1.1" xmlns="http://www.w3.org/2000/svg" xmlns:xlink="http://www.w3.org/1999/xlink">
    <title>Group 2</title>
    <style>
        #光 {
            fill: #1f1122;
        }
        @media (prefers-color-scheme: dark) {
            #光 {
                fill: #ffffff;
            }
        }
    </style>
    <defs>
        <linearGradient x1="16.1996001%" y1="-2.08166817e-14%" x2="83.8003999%" y2="100%" id="linearGradient-1">
            <stop stop-color="#EC008C" offset="0%"></stop>
            <stop stop-color="#FC6767" offset="100%"></stop>
        </linearGradient>
        <path d="M2.394,0.105 C1.428,0.105 0.693,0.063 0.021,0 C0.084,0.777 0.126,1.512 0.126,2.31 L0.126,15.855 C0.126,16.863 0.084,17.745 0,18.543 L2.961,18.543 L2.961,17.388 L12.243,17.388 L12.243,18.543 L15.246,18.543 C15.162,17.745 15.12,16.989 15.12,15.855 L15.12,2.247 C15.12,1.533 15.141,0.882 15.225,0 C14.574,0.084 13.944,0.105 12.936,0.105 L2.394,0.105 Z M2.961,7.245 L2.961,2.751 L12.243,2.751 L12.243,7.245 L2.961,7.245 Z M12.243,9.849 L12.243,14.742 L2.961,14.742 L2.961,9.849 L12.243,9.849 Z" id="path-2"></path>
    </defs>
    <g id="Page-1" stroke="none" stroke-width="1" fill="none" fill-rule="evenodd">
        <g id="Group-2" transform="translate(0.877000, 0.074000)" fill-rule="nonzero">
            <g id="Shape">
                <use fill="#FFFFFF" xlink:href="#path-2"></use>
                <use fill="url(#linearGradient-1)" xlink:href="#path-2"></use>
            </g>
            <g id="光" transform="translate(8.648000, 7.391000)" fill="#1F1122">
                <path d="M8.421,7.182 L3.129,7.182 C2.226,7.182 1.365,7.14 0.609,7.056 L0.609,9.828 C1.449,9.744 2.205,9.702 3.087,9.702 L5.712,9.702 C5.67,10.458 5.649,10.731 5.607,11.109 C5.418,12.474 4.977,13.608 4.305,14.427 C3.339,15.624 2.037,16.359 0,16.842 C0.735,17.724 1.113,18.312 1.659,19.383 C3.192,18.879 4.095,18.438 5.145,17.619 C6.531,16.548 7.476,15.204 8.001,13.587 C8.337,12.516 8.442,11.697 8.526,9.702 L10.689,9.702 L10.689,17.094 C10.689,18.837 11.214,19.11 14.553,19.11 C16.989,19.11 17.808,18.984 18.396,18.522 C19.194,17.892 19.509,16.8 19.677,14.049 C18.501,13.776 18.06,13.608 17.052,13.062 C17.01,14.973 16.947,15.582 16.758,16.065 C16.59,16.464 16.254,16.548 14.973,16.548 C13.608,16.548 13.461,16.485 13.461,16.002 L13.461,9.702 L16.842,9.702 C17.934,9.702 18.627,9.744 19.32,9.828 L19.32,7.056 C18.48,7.14 17.661,7.182 16.8,7.182 L15.12,7.182 C16.317,5.649 17.241,4.158 18.312,1.974 L15.666,0.819 C14.742,2.919 13.902,4.347 12.642,5.88 L14.91,7.182 L11.214,7.182 L11.214,2.226 C11.214,1.302 11.256,0.546 11.34,0 L8.295,0 C8.379,0.672 8.421,1.386 8.421,2.205 L8.421,7.182 Z M1.407,2.058 C2.73,3.759 3.318,4.725 4.452,7.098 L6.93,5.712 C5.796,3.486 5.208,2.541 3.885,0.84 L1.407,2.058 Z" id="Shape"></path>
            </g>
        </g>
    </g>
</svg>